<mxfile host="app.diagrams.net" modified="2024-03-28T08:49:56.725Z" agent="Mozilla/5.0 (X11; Linux x86_64) AppleWebKit/537.36 (KHTML, like Gecko) Chrome/122.0.0.0 Safari/537.36" etag="io1y2zqC6mD7PB5Uv9r1" version="24.2.0" type="github">
  <diagram name="第 1 页" id="zmKd6eQnW-4-6r4dbuUc">
    <mxGraphModel dx="205" dy="94" grid="0" gridSize="10" guides="1" tooltips="1" connect="1" arrows="1" fold="1" page="1" pageScale="1" pageWidth="827" pageHeight="1169" math="0" shadow="0">
      <root>
        <mxCell id="0" />
        <mxCell id="1" parent="0" />
        <mxCell id="Gz1KGqimrg3erazrRrEG-112" value="" style="whiteSpace=wrap;html=1;aspect=fixed;strokeWidth=0.1;" vertex="1" parent="1">
          <mxGeometry x="200" y="360" width="10" height="10" as="geometry" />
        </mxCell>
        <mxCell id="Gz1KGqimrg3erazrRrEG-113" value="" style="whiteSpace=wrap;html=1;aspect=fixed;strokeWidth=0.1;" vertex="1" parent="1">
          <mxGeometry x="120" y="360" width="10" height="10" as="geometry" />
        </mxCell>
        <mxCell id="Gz1KGqimrg3erazrRrEG-114" value="" style="whiteSpace=wrap;html=1;aspect=fixed;strokeWidth=0.1;" vertex="1" parent="1">
          <mxGeometry x="130" y="360" width="10" height="10" as="geometry" />
        </mxCell>
        <mxCell id="Gz1KGqimrg3erazrRrEG-115" value="" style="whiteSpace=wrap;html=1;aspect=fixed;strokeWidth=0.1;" vertex="1" parent="1">
          <mxGeometry x="140" y="360" width="10" height="10" as="geometry" />
        </mxCell>
        <mxCell id="Gz1KGqimrg3erazrRrEG-116" value="" style="whiteSpace=wrap;html=1;aspect=fixed;strokeWidth=0.1;" vertex="1" parent="1">
          <mxGeometry x="150" y="360" width="10" height="10" as="geometry" />
        </mxCell>
        <mxCell id="Gz1KGqimrg3erazrRrEG-117" value="" style="whiteSpace=wrap;html=1;aspect=fixed;strokeWidth=0.1;" vertex="1" parent="1">
          <mxGeometry x="160" y="360" width="10" height="10" as="geometry" />
        </mxCell>
        <mxCell id="Gz1KGqimrg3erazrRrEG-118" value="" style="whiteSpace=wrap;html=1;aspect=fixed;strokeWidth=0.1;" vertex="1" parent="1">
          <mxGeometry x="170" y="360" width="10" height="10" as="geometry" />
        </mxCell>
        <mxCell id="Gz1KGqimrg3erazrRrEG-119" value="" style="whiteSpace=wrap;html=1;aspect=fixed;strokeWidth=0.1;" vertex="1" parent="1">
          <mxGeometry x="180" y="360" width="10" height="10" as="geometry" />
        </mxCell>
        <mxCell id="Gz1KGqimrg3erazrRrEG-120" value="" style="whiteSpace=wrap;html=1;aspect=fixed;strokeWidth=0.1;" vertex="1" parent="1">
          <mxGeometry x="190" y="360" width="10" height="10" as="geometry" />
        </mxCell>
        <mxCell id="Gz1KGqimrg3erazrRrEG-82" value="" style="group" vertex="1" connectable="0" parent="1">
          <mxGeometry x="120" y="280" width="80" height="80" as="geometry" />
        </mxCell>
        <mxCell id="Gz1KGqimrg3erazrRrEG-2" value="" style="whiteSpace=wrap;html=1;aspect=fixed;strokeWidth=0.1;" vertex="1" parent="Gz1KGqimrg3erazrRrEG-82">
          <mxGeometry width="10" height="10" as="geometry" />
        </mxCell>
        <mxCell id="Gz1KGqimrg3erazrRrEG-19" value="" style="whiteSpace=wrap;html=1;aspect=fixed;strokeWidth=0.1;" vertex="1" parent="Gz1KGqimrg3erazrRrEG-82">
          <mxGeometry x="10" width="10" height="10" as="geometry" />
        </mxCell>
        <mxCell id="Gz1KGqimrg3erazrRrEG-20" value="" style="whiteSpace=wrap;html=1;aspect=fixed;strokeWidth=0.1;" vertex="1" parent="Gz1KGqimrg3erazrRrEG-82">
          <mxGeometry y="10" width="10" height="10" as="geometry" />
        </mxCell>
        <mxCell id="Gz1KGqimrg3erazrRrEG-21" value="" style="whiteSpace=wrap;html=1;aspect=fixed;strokeWidth=0.1;" vertex="1" parent="Gz1KGqimrg3erazrRrEG-82">
          <mxGeometry x="10" y="10" width="10" height="10" as="geometry" />
        </mxCell>
        <mxCell id="Gz1KGqimrg3erazrRrEG-22" value="" style="whiteSpace=wrap;html=1;aspect=fixed;strokeWidth=0.1;" vertex="1" parent="Gz1KGqimrg3erazrRrEG-82">
          <mxGeometry x="20" width="10" height="10" as="geometry" />
        </mxCell>
        <mxCell id="Gz1KGqimrg3erazrRrEG-23" value="" style="whiteSpace=wrap;html=1;aspect=fixed;strokeWidth=0.1;" vertex="1" parent="Gz1KGqimrg3erazrRrEG-82">
          <mxGeometry x="30" width="10" height="10" as="geometry" />
        </mxCell>
        <mxCell id="Gz1KGqimrg3erazrRrEG-24" value="" style="whiteSpace=wrap;html=1;aspect=fixed;strokeWidth=0.1;" vertex="1" parent="Gz1KGqimrg3erazrRrEG-82">
          <mxGeometry x="20" y="10" width="10" height="10" as="geometry" />
        </mxCell>
        <mxCell id="Gz1KGqimrg3erazrRrEG-25" value="" style="whiteSpace=wrap;html=1;aspect=fixed;strokeWidth=0.1;" vertex="1" parent="Gz1KGqimrg3erazrRrEG-82">
          <mxGeometry x="30" y="10" width="10" height="10" as="geometry" />
        </mxCell>
        <mxCell id="Gz1KGqimrg3erazrRrEG-26" value="" style="whiteSpace=wrap;html=1;aspect=fixed;strokeWidth=0.1;" vertex="1" parent="Gz1KGqimrg3erazrRrEG-82">
          <mxGeometry y="20" width="10" height="10" as="geometry" />
        </mxCell>
        <mxCell id="Gz1KGqimrg3erazrRrEG-27" value="" style="whiteSpace=wrap;html=1;aspect=fixed;strokeWidth=0.1;" vertex="1" parent="Gz1KGqimrg3erazrRrEG-82">
          <mxGeometry x="10" y="20" width="10" height="10" as="geometry" />
        </mxCell>
        <mxCell id="Gz1KGqimrg3erazrRrEG-28" value="" style="whiteSpace=wrap;html=1;aspect=fixed;strokeWidth=0.1;" vertex="1" parent="Gz1KGqimrg3erazrRrEG-82">
          <mxGeometry y="30" width="10" height="10" as="geometry" />
        </mxCell>
        <mxCell id="Gz1KGqimrg3erazrRrEG-29" value="" style="whiteSpace=wrap;html=1;aspect=fixed;strokeWidth=0.1;" vertex="1" parent="Gz1KGqimrg3erazrRrEG-82">
          <mxGeometry x="10" y="30" width="10" height="10" as="geometry" />
        </mxCell>
        <mxCell id="Gz1KGqimrg3erazrRrEG-30" value="" style="whiteSpace=wrap;html=1;aspect=fixed;strokeWidth=0.1;" vertex="1" parent="Gz1KGqimrg3erazrRrEG-82">
          <mxGeometry x="20" y="20" width="10" height="10" as="geometry" />
        </mxCell>
        <mxCell id="Gz1KGqimrg3erazrRrEG-31" value="" style="whiteSpace=wrap;html=1;aspect=fixed;strokeWidth=0.1;" vertex="1" parent="Gz1KGqimrg3erazrRrEG-82">
          <mxGeometry x="30" y="20" width="10" height="10" as="geometry" />
        </mxCell>
        <mxCell id="Gz1KGqimrg3erazrRrEG-32" value="" style="whiteSpace=wrap;html=1;aspect=fixed;strokeWidth=0.1;" vertex="1" parent="Gz1KGqimrg3erazrRrEG-82">
          <mxGeometry x="20" y="30" width="10" height="10" as="geometry" />
        </mxCell>
        <mxCell id="Gz1KGqimrg3erazrRrEG-33" value="" style="whiteSpace=wrap;html=1;aspect=fixed;strokeWidth=0.1;" vertex="1" parent="Gz1KGqimrg3erazrRrEG-82">
          <mxGeometry x="30" y="30" width="10" height="10" as="geometry" />
        </mxCell>
        <mxCell id="Gz1KGqimrg3erazrRrEG-34" value="" style="whiteSpace=wrap;html=1;aspect=fixed;strokeWidth=0.1;" vertex="1" parent="Gz1KGqimrg3erazrRrEG-82">
          <mxGeometry x="40" width="10" height="10" as="geometry" />
        </mxCell>
        <mxCell id="Gz1KGqimrg3erazrRrEG-35" value="" style="whiteSpace=wrap;html=1;aspect=fixed;strokeWidth=0.1;" vertex="1" parent="Gz1KGqimrg3erazrRrEG-82">
          <mxGeometry x="50" width="10" height="10" as="geometry" />
        </mxCell>
        <mxCell id="Gz1KGqimrg3erazrRrEG-36" value="" style="whiteSpace=wrap;html=1;aspect=fixed;strokeWidth=0.1;" vertex="1" parent="Gz1KGqimrg3erazrRrEG-82">
          <mxGeometry x="40" y="10" width="10" height="10" as="geometry" />
        </mxCell>
        <mxCell id="Gz1KGqimrg3erazrRrEG-37" value="" style="whiteSpace=wrap;html=1;aspect=fixed;strokeWidth=0.1;" vertex="1" parent="Gz1KGqimrg3erazrRrEG-82">
          <mxGeometry x="50" y="10" width="10" height="10" as="geometry" />
        </mxCell>
        <mxCell id="Gz1KGqimrg3erazrRrEG-38" value="" style="whiteSpace=wrap;html=1;aspect=fixed;strokeWidth=0.1;" vertex="1" parent="Gz1KGqimrg3erazrRrEG-82">
          <mxGeometry x="60" width="10" height="10" as="geometry" />
        </mxCell>
        <mxCell id="Gz1KGqimrg3erazrRrEG-39" value="" style="whiteSpace=wrap;html=1;aspect=fixed;strokeWidth=0.1;" vertex="1" parent="Gz1KGqimrg3erazrRrEG-82">
          <mxGeometry x="70" width="10" height="10" as="geometry" />
        </mxCell>
        <mxCell id="Gz1KGqimrg3erazrRrEG-40" value="" style="whiteSpace=wrap;html=1;aspect=fixed;strokeWidth=0.1;" vertex="1" parent="Gz1KGqimrg3erazrRrEG-82">
          <mxGeometry x="60" y="10" width="10" height="10" as="geometry" />
        </mxCell>
        <mxCell id="Gz1KGqimrg3erazrRrEG-41" value="" style="whiteSpace=wrap;html=1;aspect=fixed;strokeWidth=0.1;" vertex="1" parent="Gz1KGqimrg3erazrRrEG-82">
          <mxGeometry x="70" y="10" width="10" height="10" as="geometry" />
        </mxCell>
        <mxCell id="Gz1KGqimrg3erazrRrEG-42" value="" style="whiteSpace=wrap;html=1;aspect=fixed;strokeWidth=0.1;" vertex="1" parent="Gz1KGqimrg3erazrRrEG-82">
          <mxGeometry x="40" y="20" width="10" height="10" as="geometry" />
        </mxCell>
        <mxCell id="Gz1KGqimrg3erazrRrEG-43" value="" style="whiteSpace=wrap;html=1;aspect=fixed;strokeWidth=0.1;" vertex="1" parent="Gz1KGqimrg3erazrRrEG-82">
          <mxGeometry x="50" y="20" width="10" height="10" as="geometry" />
        </mxCell>
        <mxCell id="Gz1KGqimrg3erazrRrEG-44" value="" style="whiteSpace=wrap;html=1;aspect=fixed;strokeWidth=0.1;" vertex="1" parent="Gz1KGqimrg3erazrRrEG-82">
          <mxGeometry x="40" y="30" width="10" height="10" as="geometry" />
        </mxCell>
        <mxCell id="Gz1KGqimrg3erazrRrEG-45" value="" style="whiteSpace=wrap;html=1;aspect=fixed;strokeWidth=0.1;" vertex="1" parent="Gz1KGqimrg3erazrRrEG-82">
          <mxGeometry x="50" y="30" width="10" height="10" as="geometry" />
        </mxCell>
        <mxCell id="Gz1KGqimrg3erazrRrEG-46" value="" style="whiteSpace=wrap;html=1;aspect=fixed;strokeWidth=0.1;" vertex="1" parent="Gz1KGqimrg3erazrRrEG-82">
          <mxGeometry x="60" y="20" width="10" height="10" as="geometry" />
        </mxCell>
        <mxCell id="Gz1KGqimrg3erazrRrEG-47" value="" style="whiteSpace=wrap;html=1;aspect=fixed;strokeWidth=0.1;" vertex="1" parent="Gz1KGqimrg3erazrRrEG-82">
          <mxGeometry x="70" y="20" width="10" height="10" as="geometry" />
        </mxCell>
        <mxCell id="Gz1KGqimrg3erazrRrEG-48" value="" style="whiteSpace=wrap;html=1;aspect=fixed;strokeWidth=0.1;" vertex="1" parent="Gz1KGqimrg3erazrRrEG-82">
          <mxGeometry x="60" y="30" width="10" height="10" as="geometry" />
        </mxCell>
        <mxCell id="Gz1KGqimrg3erazrRrEG-49" value="" style="whiteSpace=wrap;html=1;aspect=fixed;strokeWidth=0.1;" vertex="1" parent="Gz1KGqimrg3erazrRrEG-82">
          <mxGeometry x="70" y="30" width="10" height="10" as="geometry" />
        </mxCell>
        <mxCell id="Gz1KGqimrg3erazrRrEG-50" value="" style="whiteSpace=wrap;html=1;aspect=fixed;strokeWidth=0.1;" vertex="1" parent="Gz1KGqimrg3erazrRrEG-82">
          <mxGeometry y="40" width="10" height="10" as="geometry" />
        </mxCell>
        <mxCell id="Gz1KGqimrg3erazrRrEG-51" value="" style="whiteSpace=wrap;html=1;aspect=fixed;strokeWidth=0.1;" vertex="1" parent="Gz1KGqimrg3erazrRrEG-82">
          <mxGeometry x="10" y="40" width="10" height="10" as="geometry" />
        </mxCell>
        <mxCell id="Gz1KGqimrg3erazrRrEG-52" value="" style="whiteSpace=wrap;html=1;aspect=fixed;strokeWidth=0.1;" vertex="1" parent="Gz1KGqimrg3erazrRrEG-82">
          <mxGeometry y="50" width="10" height="10" as="geometry" />
        </mxCell>
        <mxCell id="Gz1KGqimrg3erazrRrEG-53" value="" style="whiteSpace=wrap;html=1;aspect=fixed;strokeWidth=0.1;" vertex="1" parent="Gz1KGqimrg3erazrRrEG-82">
          <mxGeometry x="10" y="50" width="10" height="10" as="geometry" />
        </mxCell>
        <mxCell id="Gz1KGqimrg3erazrRrEG-54" value="" style="whiteSpace=wrap;html=1;aspect=fixed;strokeWidth=0.1;" vertex="1" parent="Gz1KGqimrg3erazrRrEG-82">
          <mxGeometry x="20" y="40" width="10" height="10" as="geometry" />
        </mxCell>
        <mxCell id="Gz1KGqimrg3erazrRrEG-55" value="" style="whiteSpace=wrap;html=1;aspect=fixed;strokeWidth=0.1;" vertex="1" parent="Gz1KGqimrg3erazrRrEG-82">
          <mxGeometry x="30" y="40" width="10" height="10" as="geometry" />
        </mxCell>
        <mxCell id="Gz1KGqimrg3erazrRrEG-56" value="" style="whiteSpace=wrap;html=1;aspect=fixed;strokeWidth=0.1;" vertex="1" parent="Gz1KGqimrg3erazrRrEG-82">
          <mxGeometry x="20" y="50" width="10" height="10" as="geometry" />
        </mxCell>
        <mxCell id="Gz1KGqimrg3erazrRrEG-57" value="" style="whiteSpace=wrap;html=1;aspect=fixed;strokeWidth=0.1;" vertex="1" parent="Gz1KGqimrg3erazrRrEG-82">
          <mxGeometry x="30" y="50" width="10" height="10" as="geometry" />
        </mxCell>
        <mxCell id="Gz1KGqimrg3erazrRrEG-58" value="" style="whiteSpace=wrap;html=1;aspect=fixed;strokeWidth=0.1;" vertex="1" parent="Gz1KGqimrg3erazrRrEG-82">
          <mxGeometry y="60" width="10" height="10" as="geometry" />
        </mxCell>
        <mxCell id="Gz1KGqimrg3erazrRrEG-59" value="" style="whiteSpace=wrap;html=1;aspect=fixed;strokeWidth=0.1;" vertex="1" parent="Gz1KGqimrg3erazrRrEG-82">
          <mxGeometry x="10" y="60" width="10" height="10" as="geometry" />
        </mxCell>
        <mxCell id="Gz1KGqimrg3erazrRrEG-60" value="" style="whiteSpace=wrap;html=1;aspect=fixed;strokeWidth=0.1;" vertex="1" parent="Gz1KGqimrg3erazrRrEG-82">
          <mxGeometry y="70" width="10" height="10" as="geometry" />
        </mxCell>
        <mxCell id="Gz1KGqimrg3erazrRrEG-61" value="" style="whiteSpace=wrap;html=1;aspect=fixed;strokeWidth=0.1;" vertex="1" parent="Gz1KGqimrg3erazrRrEG-82">
          <mxGeometry x="10" y="70" width="10" height="10" as="geometry" />
        </mxCell>
        <mxCell id="Gz1KGqimrg3erazrRrEG-62" value="" style="whiteSpace=wrap;html=1;aspect=fixed;strokeWidth=0.1;" vertex="1" parent="Gz1KGqimrg3erazrRrEG-82">
          <mxGeometry x="20" y="60" width="10" height="10" as="geometry" />
        </mxCell>
        <mxCell id="Gz1KGqimrg3erazrRrEG-63" value="" style="whiteSpace=wrap;html=1;aspect=fixed;strokeWidth=0.1;" vertex="1" parent="Gz1KGqimrg3erazrRrEG-82">
          <mxGeometry x="30" y="60" width="10" height="10" as="geometry" />
        </mxCell>
        <mxCell id="Gz1KGqimrg3erazrRrEG-64" value="" style="whiteSpace=wrap;html=1;aspect=fixed;strokeWidth=0.1;" vertex="1" parent="Gz1KGqimrg3erazrRrEG-82">
          <mxGeometry x="20" y="70" width="10" height="10" as="geometry" />
        </mxCell>
        <mxCell id="Gz1KGqimrg3erazrRrEG-65" value="" style="whiteSpace=wrap;html=1;aspect=fixed;strokeWidth=0.1;" vertex="1" parent="Gz1KGqimrg3erazrRrEG-82">
          <mxGeometry x="30" y="70" width="10" height="10" as="geometry" />
        </mxCell>
        <mxCell id="Gz1KGqimrg3erazrRrEG-66" value="" style="whiteSpace=wrap;html=1;aspect=fixed;strokeWidth=0.1;" vertex="1" parent="Gz1KGqimrg3erazrRrEG-82">
          <mxGeometry x="40" y="40" width="10" height="10" as="geometry" />
        </mxCell>
        <mxCell id="Gz1KGqimrg3erazrRrEG-67" value="" style="whiteSpace=wrap;html=1;aspect=fixed;strokeWidth=0.1;" vertex="1" parent="Gz1KGqimrg3erazrRrEG-82">
          <mxGeometry x="50" y="40" width="10" height="10" as="geometry" />
        </mxCell>
        <mxCell id="Gz1KGqimrg3erazrRrEG-68" value="" style="whiteSpace=wrap;html=1;aspect=fixed;strokeWidth=0.1;" vertex="1" parent="Gz1KGqimrg3erazrRrEG-82">
          <mxGeometry x="40" y="50" width="10" height="10" as="geometry" />
        </mxCell>
        <mxCell id="Gz1KGqimrg3erazrRrEG-69" value="" style="whiteSpace=wrap;html=1;aspect=fixed;strokeWidth=0.1;" vertex="1" parent="Gz1KGqimrg3erazrRrEG-82">
          <mxGeometry x="50" y="50" width="10" height="10" as="geometry" />
        </mxCell>
        <mxCell id="Gz1KGqimrg3erazrRrEG-70" value="" style="whiteSpace=wrap;html=1;aspect=fixed;strokeWidth=0.1;" vertex="1" parent="Gz1KGqimrg3erazrRrEG-82">
          <mxGeometry x="60" y="40" width="10" height="10" as="geometry" />
        </mxCell>
        <mxCell id="Gz1KGqimrg3erazrRrEG-71" value="" style="whiteSpace=wrap;html=1;aspect=fixed;strokeWidth=0.1;" vertex="1" parent="Gz1KGqimrg3erazrRrEG-82">
          <mxGeometry x="70" y="40" width="10" height="10" as="geometry" />
        </mxCell>
        <mxCell id="Gz1KGqimrg3erazrRrEG-72" value="" style="whiteSpace=wrap;html=1;aspect=fixed;strokeWidth=0.1;" vertex="1" parent="Gz1KGqimrg3erazrRrEG-82">
          <mxGeometry x="60" y="50" width="10" height="10" as="geometry" />
        </mxCell>
        <mxCell id="Gz1KGqimrg3erazrRrEG-73" value="" style="whiteSpace=wrap;html=1;aspect=fixed;strokeWidth=0.1;" vertex="1" parent="Gz1KGqimrg3erazrRrEG-82">
          <mxGeometry x="70" y="50" width="10" height="10" as="geometry" />
        </mxCell>
        <mxCell id="Gz1KGqimrg3erazrRrEG-74" value="" style="whiteSpace=wrap;html=1;aspect=fixed;strokeWidth=0.1;" vertex="1" parent="Gz1KGqimrg3erazrRrEG-82">
          <mxGeometry x="40" y="60" width="10" height="10" as="geometry" />
        </mxCell>
        <mxCell id="Gz1KGqimrg3erazrRrEG-75" value="" style="whiteSpace=wrap;html=1;aspect=fixed;strokeWidth=0.1;" vertex="1" parent="Gz1KGqimrg3erazrRrEG-82">
          <mxGeometry x="50" y="60" width="10" height="10" as="geometry" />
        </mxCell>
        <mxCell id="Gz1KGqimrg3erazrRrEG-76" value="" style="whiteSpace=wrap;html=1;aspect=fixed;strokeWidth=0.1;" vertex="1" parent="Gz1KGqimrg3erazrRrEG-82">
          <mxGeometry x="40" y="70" width="10" height="10" as="geometry" />
        </mxCell>
        <mxCell id="Gz1KGqimrg3erazrRrEG-77" value="" style="whiteSpace=wrap;html=1;aspect=fixed;strokeWidth=0.1;" vertex="1" parent="Gz1KGqimrg3erazrRrEG-82">
          <mxGeometry x="50" y="70" width="10" height="10" as="geometry" />
        </mxCell>
        <mxCell id="Gz1KGqimrg3erazrRrEG-78" value="" style="whiteSpace=wrap;html=1;aspect=fixed;strokeWidth=0.1;" vertex="1" parent="Gz1KGqimrg3erazrRrEG-82">
          <mxGeometry x="60" y="60" width="10" height="10" as="geometry" />
        </mxCell>
        <mxCell id="Gz1KGqimrg3erazrRrEG-79" value="" style="whiteSpace=wrap;html=1;aspect=fixed;strokeWidth=0.1;" vertex="1" parent="Gz1KGqimrg3erazrRrEG-82">
          <mxGeometry x="70" y="60" width="10" height="10" as="geometry" />
        </mxCell>
        <mxCell id="Gz1KGqimrg3erazrRrEG-80" value="" style="whiteSpace=wrap;html=1;aspect=fixed;strokeWidth=0.1;" vertex="1" parent="Gz1KGqimrg3erazrRrEG-82">
          <mxGeometry x="60" y="70" width="10" height="10" as="geometry" />
        </mxCell>
        <mxCell id="Gz1KGqimrg3erazrRrEG-81" value="" style="whiteSpace=wrap;html=1;aspect=fixed;strokeWidth=0.1;" vertex="1" parent="Gz1KGqimrg3erazrRrEG-82">
          <mxGeometry x="70" y="70" width="10" height="10" as="geometry" />
        </mxCell>
        <mxCell id="Gz1KGqimrg3erazrRrEG-101" value="" style="endArrow=classic;html=1;rounded=0;endSize=0;strokeWidth=0.2;exitX=0.5;exitY=0;exitDx=0;exitDy=0;fillColor=#d5e8d4;strokeColor=#003cf0;" edge="1" parent="Gz1KGqimrg3erazrRrEG-82" source="Gz1KGqimrg3erazrRrEG-66">
          <mxGeometry width="50" height="50" relative="1" as="geometry">
            <mxPoint x="44.97999999999999" y="41" as="sourcePoint" />
            <mxPoint x="44.97999999999999" y="45" as="targetPoint" />
            <Array as="points" />
          </mxGeometry>
        </mxCell>
        <mxCell id="Gz1KGqimrg3erazrRrEG-102" value="" style="endArrow=classic;html=1;rounded=0;endSize=0;strokeWidth=0.2;exitX=0;exitY=1;exitDx=0;exitDy=0;fillColor=#d5e8d4;strokeColor=#003cf0;" edge="1" parent="Gz1KGqimrg3erazrRrEG-82">
          <mxGeometry width="50" height="50" relative="1" as="geometry">
            <mxPoint x="40" y="45" as="sourcePoint" />
            <mxPoint x="44.98999999999999" y="45" as="targetPoint" />
            <Array as="points" />
          </mxGeometry>
        </mxCell>
        <mxCell id="Gz1KGqimrg3erazrRrEG-103" value="" style="whiteSpace=wrap;html=1;aspect=fixed;strokeWidth=0.1;" vertex="1" parent="1">
          <mxGeometry x="200" y="280" width="10" height="10" as="geometry" />
        </mxCell>
        <mxCell id="Gz1KGqimrg3erazrRrEG-104" value="" style="whiteSpace=wrap;html=1;aspect=fixed;strokeWidth=0.1;" vertex="1" parent="1">
          <mxGeometry x="200" y="290" width="10" height="10" as="geometry" />
        </mxCell>
        <mxCell id="Gz1KGqimrg3erazrRrEG-105" value="" style="whiteSpace=wrap;html=1;aspect=fixed;strokeWidth=0.1;" vertex="1" parent="1">
          <mxGeometry x="200" y="300" width="10" height="10" as="geometry" />
        </mxCell>
        <mxCell id="Gz1KGqimrg3erazrRrEG-106" value="" style="whiteSpace=wrap;html=1;aspect=fixed;strokeWidth=0.1;" vertex="1" parent="1">
          <mxGeometry x="200" y="310" width="10" height="10" as="geometry" />
        </mxCell>
        <mxCell id="Gz1KGqimrg3erazrRrEG-107" value="" style="whiteSpace=wrap;html=1;aspect=fixed;strokeWidth=0.1;" vertex="1" parent="1">
          <mxGeometry x="200" y="310" width="10" height="10" as="geometry" />
        </mxCell>
        <mxCell id="Gz1KGqimrg3erazrRrEG-108" value="" style="whiteSpace=wrap;html=1;aspect=fixed;strokeWidth=0.1;" vertex="1" parent="1">
          <mxGeometry x="200" y="320" width="10" height="10" as="geometry" />
        </mxCell>
        <mxCell id="Gz1KGqimrg3erazrRrEG-109" value="" style="whiteSpace=wrap;html=1;aspect=fixed;strokeWidth=0.1;" vertex="1" parent="1">
          <mxGeometry x="200" y="330" width="10" height="10" as="geometry" />
        </mxCell>
        <mxCell id="Gz1KGqimrg3erazrRrEG-110" value="" style="whiteSpace=wrap;html=1;aspect=fixed;strokeWidth=0.1;" vertex="1" parent="1">
          <mxGeometry x="200" y="340" width="10" height="10" as="geometry" />
        </mxCell>
        <mxCell id="Gz1KGqimrg3erazrRrEG-111" value="" style="whiteSpace=wrap;html=1;aspect=fixed;strokeWidth=0.1;" vertex="1" parent="1">
          <mxGeometry x="200" y="350" width="10" height="10" as="geometry" />
        </mxCell>
        <mxCell id="Gz1KGqimrg3erazrRrEG-122" value="" style="endArrow=classic;html=1;rounded=0;endSize=0;strokeWidth=0.2;fillColor=#d5e8d4;strokeColor=#003cf0;" edge="1" parent="1">
          <mxGeometry width="50" height="50" relative="1" as="geometry">
            <mxPoint x="220" y="310" as="sourcePoint" />
            <mxPoint x="230" y="310" as="targetPoint" />
            <Array as="points" />
          </mxGeometry>
        </mxCell>
        <mxCell id="Gz1KGqimrg3erazrRrEG-123" value="Center Point Offset" style="text;strokeColor=none;align=center;fillColor=none;html=1;verticalAlign=middle;whiteSpace=wrap;rounded=0;fontSize=3;" vertex="1" parent="1">
          <mxGeometry x="229" y="306" width="30" height="10" as="geometry" />
        </mxCell>
        <mxCell id="Gz1KGqimrg3erazrRrEG-127" value="" style="endArrow=classic;html=1;rounded=0;endSize=0;strokeWidth=0.2;fillColor=#f8cecc;strokeColor=#b85450;" edge="1" parent="1">
          <mxGeometry width="50" height="50" relative="1" as="geometry">
            <mxPoint x="220" y="319.97" as="sourcePoint" />
            <mxPoint x="230" y="319.97" as="targetPoint" />
            <Array as="points" />
          </mxGeometry>
        </mxCell>
        <mxCell id="Gz1KGqimrg3erazrRrEG-128" value="Corner Point Offset" style="text;strokeColor=none;align=center;fillColor=none;html=1;verticalAlign=middle;whiteSpace=wrap;rounded=0;fontSize=3;" vertex="1" parent="1">
          <mxGeometry x="229" y="316" width="30" height="10" as="geometry" />
        </mxCell>
        <mxCell id="Gz1KGqimrg3erazrRrEG-98" value="" style="group;rotation=20;" vertex="1" connectable="0" parent="1">
          <mxGeometry x="131" y="298" width="60" height="60.079999999999984" as="geometry" />
        </mxCell>
        <mxCell id="Gz1KGqimrg3erazrRrEG-83" value="" style="endArrow=none;html=1;rounded=0;strokeColor=#000000;" edge="1" parent="Gz1KGqimrg3erazrRrEG-98">
          <mxGeometry width="50" height="50" relative="1" as="geometry">
            <mxPoint x="72" y="9" as="sourcePoint" />
            <mxPoint x="53" y="2" as="targetPoint" />
          </mxGeometry>
        </mxCell>
        <mxCell id="Gz1KGqimrg3erazrRrEG-84" value="" style="endArrow=none;html=1;rounded=0;strokeColor=#000000;" edge="1" parent="Gz1KGqimrg3erazrRrEG-98">
          <mxGeometry width="50" height="50" relative="1" as="geometry">
            <mxPoint x="36" y="-4" as="sourcePoint" />
            <mxPoint x="16" y="-12" as="targetPoint" />
          </mxGeometry>
        </mxCell>
        <mxCell id="Gz1KGqimrg3erazrRrEG-85" value="" style="endArrow=none;html=1;rounded=0;strokeColor=#000000;" edge="1" parent="Gz1KGqimrg3erazrRrEG-98">
          <mxGeometry width="50" height="50" relative="1" as="geometry">
            <mxPoint x="5" y="49" as="sourcePoint" />
            <mxPoint x="26" y="-8" as="targetPoint" />
          </mxGeometry>
        </mxCell>
        <mxCell id="Gz1KGqimrg3erazrRrEG-86" value="" style="endArrow=none;html=1;rounded=0;strokeColor=#000000;" edge="1" parent="Gz1KGqimrg3erazrRrEG-98">
          <mxGeometry width="50" height="50" relative="1" as="geometry">
            <mxPoint x="42" y="62" as="sourcePoint" />
            <mxPoint x="63" y="5" as="targetPoint" />
          </mxGeometry>
        </mxCell>
        <mxCell id="Gz1KGqimrg3erazrRrEG-87" value="" style="endArrow=none;html=1;rounded=0;strokeColor=#000000;" edge="1" parent="Gz1KGqimrg3erazrRrEG-98">
          <mxGeometry width="50" height="50" relative="1" as="geometry">
            <mxPoint x="5" y="49" as="sourcePoint" />
            <mxPoint x="42" y="62" as="targetPoint" />
          </mxGeometry>
        </mxCell>
        <mxCell id="Gz1KGqimrg3erazrRrEG-94" value="" style="endArrow=classic;html=1;rounded=0;endSize=1;strokeWidth=0.5;fillColor=#f8cecc;strokeColor=#b85450;" edge="1" parent="1">
          <mxGeometry width="50" height="50" relative="1" as="geometry">
            <mxPoint x="165" y="325" as="sourcePoint" />
            <mxPoint x="194" y="303" as="targetPoint" />
          </mxGeometry>
        </mxCell>
      </root>
    </mxGraphModel>
  </diagram>
</mxfile>
